<svg width="9" height="12" viewBox="0 0 9 12" fill="none" xmlns="http://www.w3.org/2000/svg">
<path fill-rule="evenodd" clip-rule="evenodd" d="M1 4.41306C1 5.24811 2.01734 7.00789 2.01734 7.00789L4.41327 11L6.67217 7.00789C6.67217 7.00789 7.82653 5.23565 7.82653 4.41306C7.82642 2.52796 6.29815 0.999885 4.41306 1C2.52796 1.00011 0.999885 2.52838 1 4.41347L1 4.41306Z" stroke="black" stroke-width="0.8" stroke-linecap="round" stroke-linejoin="round"/>
<path fill-rule="evenodd" clip-rule="evenodd" d="M2.40763 4.16391C2.40292 3.35065 2.8893 2.61488 3.63939 2.30059C4.38948 1.98629 5.25508 2.15556 5.83153 2.72926C6.40797 3.30295 6.58137 4.16774 6.27066 4.91932C5.95994 5.6709 5.22651 6.16079 4.41323 6.15997C3.88253 6.1614 3.37301 5.95187 2.99685 5.5775C2.62069 5.20313 2.40873 4.69462 2.40763 4.16391V4.16391Z" stroke="black" stroke-width="0.6"/>
</svg>
