<svg width="10" height="8" viewBox="0 0 10 8" fill="none" xmlns="http://www.w3.org/2000/svg">
<path fill-rule="evenodd" clip-rule="evenodd" d="M8.89333 0C9.20445 0 9.46667 0.106666 9.68 0.32C9.89333 0.533334 10 0.795554 10 1.10667V6.10667C10 6.40889 9.89333 6.66889 9.68 6.88667C9.46667 7.10445 9.20445 7.21333 8.89333 7.21333H1.10667C0.795554 7.21333 0.533334 7.10445 0.32 6.88667C0.106666 6.66889 0 6.40889 0 6.10667V1.10667C0 0.795554 0.106666 0.533334 0.32 0.32C0.533334 0.106666 0.795554 0 1.10667 0H8.89333ZM3.53333 3.81L1.10999 6.54H8.89001L6.46667 3.81L5.6 4.57C5.43111 4.71222 5.23111 4.78333 5 4.78333C4.76889 4.78333 4.56889 4.71222 4.4 4.57L3.53333 3.81ZM0.710022 6.12L3.10999 3.61L0.710022 1.36V6.12ZM9.29999 6.12L6.90002 3.61L9.29999 1.36V6.12ZM8.89665 0.810001H1.10999V0.930001L4.76332 4.13C4.82554 4.18333 4.90554 4.21 5.00332 4.21C5.1011 4.21 5.1811 4.18333 5.24332 4.13L8.89665 0.930001V0.810001Z" fill="black"/>
</svg>
