<svg width="6" height="10" viewBox="0 0 6 10" fill="none" xmlns="http://www.w3.org/2000/svg">
<path fill-rule="evenodd" clip-rule="evenodd" d="M0.75 0H5.25C5.66421 0 6 0.373096 6 0.833333V9.16667C6 9.6269 5.66421 10 5.25 10H0.75C0.335786 10 0 9.6269 0 9.16667V0.833333C0 0.373096 0.335786 0 0.75 0V0ZM0.73756 1.25H5.26001V7.91667H0.73001L0.73756 1.25ZM3.9755 0.418046L4 0.835287H2V0.418046H3.9755ZM2.98667 8.54167C3.21679 8.54167 3.40333 8.72821 3.40333 8.95833C3.40333 9.18845 3.21679 9.375 2.98667 9.375C2.75655 9.375 2.57 9.18845 2.57 8.95833C2.57 8.72821 2.75655 8.54167 2.98667 8.54167V8.54167Z" fill="black"/>
</svg>
